<svg width="143" height="89" viewBox="0 0 143 89" fill="none" xmlns="http://www.w3.org/2000/svg">
<rect width="143" height="89" fill="#F5F5F5"/>
<path id="Convert your image to text" d="M-284.056 -26.19C-311.191 -26.19 -328.201 -45.36 -328.201 -74.25C-328.201 -102.87 -310.516 -122.31 -283.111 -122.31C-262.186 -122.31 -246.931 -110.16 -243.421 -90.585H-255.841C-259.486 -103.68 -269.476 -111.51 -283.651 -111.51C-303.496 -111.51 -316.186 -96.12 -316.186 -74.25C-316.186 -52.515 -304.036 -36.99 -284.191 -36.99C-269.611 -36.99 -259.486 -44.685 -255.976 -57.915H-243.556C-247.066 -38.34 -262.726 -26.19 -284.056 -26.19ZM-203.268 -26.19C-223.383 -26.19 -237.423 -40.5 -237.423 -61.425C-237.423 -82.35 -223.383 -96.66 -203.268 -96.66C-183.153 -96.66 -169.113 -82.35 -169.113 -61.425C-169.113 -40.5 -183.153 -26.19 -203.268 -26.19ZM-203.268 -36.045C-189.633 -36.045 -180.453 -46.71 -180.453 -61.425C-180.453 -76.14 -189.633 -86.805 -203.268 -86.805C-216.903 -86.805 -226.083 -76.14 -226.083 -61.425C-226.083 -46.71 -216.903 -36.045 -203.268 -36.045ZM-126.669 -96.66C-111.144 -96.66 -98.859 -88.155 -98.859 -65.34V-27H-109.929V-64.665C-109.929 -78.975 -116.544 -86.535 -128.559 -86.535C-141.519 -86.535 -149.349 -76.95 -149.349 -61.425V-27H-160.419V-95.85H-150.834L-149.349 -86.535C-145.299 -91.8 -138.279 -96.66 -126.669 -96.66ZM-72.3501 -27L-98.1351 -95.85H-86.2551L-65.4651 -39.555L-44.8101 -95.85H-33.2001L-58.9851 -27H-72.3501ZM-0.243807 -26.19C-20.8988 -26.19 -34.3988 -40.365 -34.3988 -61.425C-34.3988 -82.35 -21.1688 -96.66 -1.72881 -96.66C17.7112 -96.66 30.4012 -84.375 30.9412 -63.99C30.9412 -62.505 30.8062 -60.885 30.6712 -59.265H-22.7888V-58.32C-22.3838 -45.225 -14.1488 -36.045 -1.05381 -36.045C8.66619 -36.045 16.2262 -41.175 18.5212 -50.085H29.7262C27.0262 -36.315 15.6862 -26.19 -0.243807 -26.19ZM-22.1138 -68.445H19.0612C17.9812 -80.325 9.88119 -86.94 -1.59381 -86.94C-11.7188 -86.94 -21.0338 -79.65 -22.1138 -68.445ZM71.4332 -95.85H74.5382V-85.05H69.0032C54.5582 -85.05 50.6432 -73.035 50.6432 -62.1V-27H39.5732V-95.85H49.1582L50.6432 -85.455C53.8832 -90.72 59.1482 -95.85 71.4332 -95.85ZM87.5049 -44.955V-85.725H75.0849V-95.85H87.5049V-115.155H98.5749V-95.85H116.395V-85.725H98.5749V-45.09C98.5749 -39.285 100.6 -37.125 106.54 -37.125H117.475V-27H105.46C92.2299 -27 87.5049 -32.805 87.5049 -44.955ZM268.375 -26.595L241.51 -95.85H253.255L274.45 -40.905L294.97 -95.85H306.715L274.99 -15.39C270.67 -4.32 268.105 4.02331e-07 258.385 4.02331e-07H245.155V-10.125H255.01C261.355 -10.125 262.435 -11.745 265 -18.225L268.375 -26.595ZM339.665 -26.19C319.55 -26.19 305.51 -40.5 305.51 -61.425C305.51 -82.35 319.55 -96.66 339.665 -96.66C359.78 -96.66 373.82 -82.35 373.82 -61.425C373.82 -40.5 359.78 -26.19 339.665 -26.19ZM339.665 -36.045C353.3 -36.045 362.48 -46.71 362.48 -61.425C362.48 -76.14 353.3 -86.805 339.665 -86.805C326.03 -86.805 316.85 -76.14 316.85 -61.425C316.85 -46.71 326.03 -36.045 339.665 -36.045ZM430.71 -61.425V-95.85H441.78V-27H432.195L430.71 -36.18C426.66 -31.05 420.045 -26.19 408.705 -26.19C393.585 -26.19 381.57 -34.695 381.57 -57.51V-95.85H392.64V-58.185C392.64 -43.875 399.12 -36.315 410.595 -36.315C423.15 -36.315 430.71 -45.9 430.71 -61.425ZM484.73 -95.85H487.835V-85.05H482.3C467.855 -85.05 463.94 -73.035 463.94 -62.1V-27H452.87V-95.85H462.455L463.94 -85.455C467.18 -90.72 472.445 -95.85 484.73 -95.85ZM-345.403 -1.46C-349.453 -1.46 -352.558 -4.43 -352.558 -8.61501C-352.558 -12.8 -349.453 -15.77 -345.403 -15.77C-341.353 -15.77 -338.248 -12.8 -338.248 -8.61501C-338.248 -4.43 -341.353 -1.46 -345.403 -1.46ZM-351.073 79V10.15H-340.003V79H-351.073ZM-252.023 9.34C-237.713 9.34 -225.968 17.575 -225.968 39.31V79H-237.038V39.985C-237.038 26.485 -242.978 19.465 -253.373 19.465C-264.848 19.465 -271.868 28.105 -271.868 42.145V79H-282.938V39.985C-282.938 26.485 -289.013 19.465 -299.543 19.465C-310.883 19.465 -317.768 28.915 -317.768 42.685V79H-328.838V10.15H-319.253L-317.768 19.6C-314.123 14.605 -308.318 9.34 -297.653 9.34C-288.068 9.34 -279.833 13.66 -275.918 22.435C-271.733 15.01 -264.308 9.34 -252.023 9.34ZM-154.883 68.875H-151.373V79H-157.448C-166.628 79 -169.733 75.085 -169.868 68.335C-174.188 74.545 -181.073 79.81 -192.953 79.81C-208.073 79.81 -218.333 72.25 -218.333 59.695C-218.333 45.925 -208.748 38.23 -190.658 38.23H-170.408V33.505C-170.408 24.595 -176.753 19.195 -187.553 19.195C-197.273 19.195 -203.753 23.785 -205.103 30.805H-216.173C-214.553 17.305 -203.618 9.34 -187.013 9.34C-169.463 9.34 -159.338 18.115 -159.338 34.18V64.285C-159.338 67.93 -157.988 68.875 -154.883 68.875ZM-170.408 50.92V47.545H-191.738C-201.593 47.545 -207.128 51.19 -207.128 59.02C-207.128 65.77 -201.323 70.36 -192.143 70.36C-178.373 70.36 -170.408 62.395 -170.408 50.92ZM-92.5924 22.03L-91.1074 10.15H-81.5224V75.625C-81.5224 95.47 -92.0524 106.81 -115.677 106.81C-133.227 106.81 -145.512 98.575 -147.267 83.455H-135.927C-134.037 92.095 -126.342 96.955 -114.867 96.955C-100.422 96.955 -92.5924 90.205 -92.5924 75.22V67.12C-97.1824 74.95 -104.607 79.81 -116.217 79.81C-135.252 79.81 -149.292 66.985 -149.292 44.575C-149.292 23.515 -135.252 9.34 -116.217 9.34C-104.607 9.34 -96.9124 14.335 -92.5924 22.03ZM-115.137 69.955C-101.637 69.955 -92.4574 59.56 -92.4574 44.845C-92.4574 29.725 -101.637 19.195 -115.137 19.195C-128.772 19.195 -137.952 29.59 -137.952 44.575C-137.952 59.56 -128.772 69.955 -115.137 69.955ZM-38.7174 79.81C-59.3724 79.81 -72.8724 65.635 -72.8724 44.575C-72.8724 23.65 -59.6424 9.34 -40.2024 9.34C-20.7624 9.34 -8.07244 21.625 -7.53244 42.01C-7.53244 43.495 -7.66744 45.115 -7.80244 46.735H-61.2624V47.68C-60.8574 60.775 -52.6224 69.955 -39.5274 69.955C-29.8074 69.955 -22.2474 64.825 -19.9524 55.915H-8.74744C-11.4474 69.685 -22.7874 79.81 -38.7174 79.81ZM-60.5874 37.555H-19.4124C-20.4924 25.675 -28.5924 19.06 -40.0674 19.06C-50.1924 19.06 -59.5074 26.35 -60.5874 37.555ZM162.89 61.045V20.275H150.47V10.15H162.89V-9.15501H173.96V10.15H191.78V20.275H173.96V60.91C173.96 66.715 175.985 68.875 181.925 68.875H192.86V79H180.845C167.615 79 162.89 73.195 162.89 61.045ZM228.463 79.81C208.348 79.81 194.308 65.5 194.308 44.575C194.308 23.65 208.348 9.34 228.463 9.34C248.578 9.34 262.618 23.65 262.618 44.575C262.618 65.5 248.578 79.81 228.463 79.81ZM228.463 69.955C242.098 69.955 251.278 59.29 251.278 44.575C251.278 29.86 242.098 19.195 228.463 19.195C214.828 19.195 205.648 29.86 205.648 44.575C205.648 59.29 214.828 69.955 228.463 69.955ZM307.774 61.045V20.275H295.354V10.15H307.774V-9.15501H318.844V10.15H336.664V20.275H318.844V60.91C318.844 66.715 320.869 68.875 326.809 68.875H337.744V79H325.729C312.499 79 307.774 73.195 307.774 61.045ZM373.348 79.81C352.693 79.81 339.193 65.635 339.193 44.575C339.193 23.65 352.423 9.34 371.863 9.34C391.303 9.34 403.993 21.625 404.533 42.01C404.533 43.495 404.398 45.115 404.263 46.735H350.803V47.68C351.208 60.775 359.443 69.955 372.538 69.955C382.258 69.955 389.818 64.825 392.113 55.915H403.318C400.618 69.685 389.278 79.81 373.348 79.81ZM351.478 37.555H392.653C391.573 25.675 383.473 19.06 371.998 19.06C361.873 19.06 352.558 26.35 351.478 37.555ZM402.975 79L429.165 43.63L404.73 10.15H417.96L436.185 35.665L454.68 10.15H467.235L442.665 43.63L468.99 79H455.76L435.645 51.325L415.53 79H402.975ZM478.631 61.045V20.275H466.211V10.15H478.631V-9.15501H489.701V10.15H507.521V20.275H489.701V60.91C489.701 66.715 491.726 68.875 497.666 68.875H508.601V79H496.586C483.356 79 478.631 73.195 478.631 61.045Z" fill="black"/>
<g id="Rectangle 16" filter="url(#filter0_d_0_1)">
<path fill-rule="evenodd" clip-rule="evenodd" d="M22 79C13.7157 79 7 72.2843 7 64V19C7 10.7157 13.7157 4 22 4H121C129.284 4 136 10.7157 136 19V64C136 72.2843 129.284 79 121 79H22Z" fill="#161616"/>
</g>
<defs>
<filter id="filter0_d_0_1" x="0.398409" y="0.227662" width="142.203" height="88.2032" filterUnits="userSpaceOnUse" color-interpolation-filters="sRGB">
<feFlood flood-opacity="0" result="BackgroundImageFix"/>
<feColorMatrix in="SourceAlpha" type="matrix" values="0 0 0 0 0 0 0 0 0 0 0 0 0 0 0 0 0 0 127 0" result="hardAlpha"/>
<feOffset dy="2.82925"/>
<feGaussianBlur stdDeviation="3.3008"/>
<feColorMatrix type="matrix" values="0 0 0 0 0 0 0 0 0 0 0 0 0 0 0 0 0 0 0.16 0"/>
<feBlend mode="normal" in2="BackgroundImageFix" result="effect1_dropShadow_0_1"/>
<feBlend mode="normal" in="SourceGraphic" in2="effect1_dropShadow_0_1" result="shape"/>
</filter>
</defs>
</svg>
